# xmcd CD database file generated by Grip 3.0.5
# 
# Track frame offsets:
#       150
#       19755
#       35897
#       59572
#       74980
#       91980
#       114777
#       129940
#       148905
#       166365
#       177252
#       195212
#       210727
# 
# Disc length: 3082 seconds
# 
# Revision: 2
# Processed by: cddbd v1.4PL0 Copyright (c) Steve Scherf et al.
# Submitted via: Grip 3.0.5
# 
DISCID=bf0c080d
DTITLE=Nisse Hellberg and Peps Persson - Röster från Södern
DYEAR=1994
DGENRE=Blues
TTITLE0=En man steg av båten
TTITLE1=Det är nåt magiskt med dej
TTITLE2=Explosiv
TTITLE3=Skuggan bakom dej
TTITLE4=M/s Colinda
TTITLE5=Herr Blues hälsar på
TTITLE6=Blues Cocktail
TTITLE7=Blondin på villovägar
TTITLE8=Stjärnan i mitt liv
TTITLE9=Rum nr. 5
TTITLE10=Blues Abc
TTITLE11=Kasino blues
TTITLE12=Ge mej lite harmoni
EXTD=
EXTT0=
EXTT1=
EXTT2=
EXTT3=
EXTT4=
EXTT5=
EXTT6=
EXTT7=
EXTT8=
EXTT9=
EXTT10=
EXTT11=
EXTT12=
PLAYORDER=
